# xmcd
#
# Track frame offsets: 
#        225
#        10647
#        24935
#        45782
#        57562
#        72378
#        86600
#        98261
#        110750
#        131398
#        150684
#        163311
#        175477
#        192756
#        207367
#
# Disc length: 2906 seconds
#
# Revision: 0
# Processed by: cddbd v1.5.2PL0 Copyright (c) Steve Scherf et al.
# Submitted via: ExactAudioCopy v1.3
#
DISCID=be0b570f
DTITLE=Various artist - Nejhezčí české trampské písničky III.
DYEAR=2000
DGENRE=Country
TTITLE0=Údolí děsu - Vlajka vzhůru letí
TTITLE1=Úsvit TC Praha - Ztracenka si zpívá
TTITLE2=František Nedvěd - Ascalona
TTITLE3=Pacifik - Stopy sešlapanejch bot
TTITLE4=Akáty, Jitka Vrbová - Niagara
TTITLE5=T.S. Sešlost - Sedm žlutejch kamínků
TTITLE6=Wabi Ryvola - Prokletá fordka
TTITLE7=Duo Červánek - Co nevidět se sejdem
TTITLE8=Akáty, Tony Brych - Hospůdka
TTITLE9=Akáty, Petr Altmann - Anita
TTITLE10=Kapitán Kid - Kdo mi zatlačí oči
TTITLE11=Akáty, Jarda Blanda - Vdovy z Cordoby
TTITLE12=Zlatý orel - Přijď, přijď rozehřát vigvam můj
TTITLE13=KTO - Kabaleři, západ hoří
TTITLE14=Miki Ryvola - Poslední míle
EXTD=
EXTT0=
EXTT1=
EXTT2=
EXTT3=
EXTT4=
EXTT5=
EXTT6=
EXTT7=
EXTT8=
EXTT9=
EXTT10=
EXTT11=
EXTT12=
EXTT13=
EXTT14=
PLAYORDER=
